<svg xmlns="http://www.w3.org/2000/svg" viewBox="0 0 120 120" ><defs>
<linearGradient id="gWhite" x1="0" y1="0" x2="1" y2="1"><stop offset="0" stop-color="#ffffff"/><stop offset=".55" stop-color="#e9f0f4"/><stop offset="1" stop-color="#b9c8d2"/></linearGradient>
<linearGradient id="gSteel" x1="0" y1="0" x2="0" y2="1"><stop offset="0" stop-color="#f6f9fb"/><stop offset="1" stop-color="#a9b9c4"/></linearGradient>
<linearGradient id="gTeal" x1="0" y1="0" x2="1" y2="1"><stop offset="0" stop-color="#63cdc8"/><stop offset="1" stop-color="#0b7a82"/></linearGradient>
<linearGradient id="gTealD" x1="0" y1="0" x2="1" y2="1"><stop offset="0" stop-color="#3aa6ab"/><stop offset="1" stop-color="#0a5560"/></linearGradient>
<linearGradient id="gBlue" x1="0" y1="0" x2="1" y2="1"><stop offset="0" stop-color="#8fcdf3"/><stop offset="1" stop-color="#2d7bbb"/></linearGradient>
<linearGradient id="gRed" x1="0" y1="0" x2="1" y2="1"><stop offset="0" stop-color="#ff8f89"/><stop offset=".6" stop-color="#e2434d"/><stop offset="1" stop-color="#b3232f"/></linearGradient>
<linearGradient id="gAmber" x1="0" y1="0" x2="0" y2="1"><stop offset="0" stop-color="#ffe7a8"/><stop offset="1" stop-color="#f2a62f"/></linearGradient>
<linearGradient id="gGlass" x1="0" y1="0" x2="1" y2="0"><stop offset="0" stop-color="#ffffff" stop-opacity=".95"/><stop offset=".5" stop-color="#dff0f5" stop-opacity=".6"/><stop offset="1" stop-color="#bddbe6" stop-opacity=".75"/></linearGradient>
<radialGradient id="rRed" cx=".35" cy=".3" r=".8"><stop offset="0" stop-color="#ff9d96"/><stop offset=".55" stop-color="#e3454f"/><stop offset="1" stop-color="#a81f2b"/></radialGradient>
<radialGradient id="rDimple" cx=".5" cy=".4" r=".7"><stop offset="0" stop-color="#b92a35"/><stop offset="1" stop-color="#d9525b"/></radialGradient>
<radialGradient id="rAmber" cx=".35" cy=".3" r=".8"><stop offset="0" stop-color="#fff0c4"/><stop offset=".55" stop-color="#f5b43f"/><stop offset="1" stop-color="#d98a17"/></radialGradient>
<radialGradient id="rBlue" cx=".35" cy=".3" r=".8"><stop offset="0" stop-color="#bfe5fa"/><stop offset=".55" stop-color="#4b9ad6"/><stop offset="1" stop-color="#1f66a3"/></radialGradient>
<radialGradient id="rTeal" cx=".35" cy=".3" r=".8"><stop offset="0" stop-color="#9fe6e1"/><stop offset=".55" stop-color="#25a8a8"/><stop offset="1" stop-color="#0a6a72"/></radialGradient>
<radialGradient id="rCream" cx=".35" cy=".3" r=".8"><stop offset="0" stop-color="#ffffff"/><stop offset=".6" stop-color="#fbe9c9"/><stop offset="1" stop-color="#e7c690"/></radialGradient>
<radialGradient id="rPink" cx=".35" cy=".3" r=".8"><stop offset="0" stop-color="#ffe3e6"/><stop offset=".6" stop-color="#f4a3ae"/><stop offset="1" stop-color="#d2697a"/></radialGradient>
<filter id="blur" x="-30%" y="-100%" width="160%" height="300%"><feGaussianBlur stdDeviation="3"/></filter>
<filter id="blurL" x="-30%" y="-100%" width="160%" height="300%"><feGaussianBlur stdDeviation="9"/></filter>
</defs><ellipse cx="54" cy="106" rx="46" ry="6" fill="rgba(23,56,74,0.24)" filter="url(#blur)"/><rect x="12" y="36" width="70" height="64" rx="13" fill="url(#gWhite)"/><path d="M12 49a13 13 0 0 1 13-13h44a13 13 0 0 1 13 13v9H12z" fill="url(#gTeal)"/><rect x="18" y="39" width="58" height="4" rx="2" fill="#fff" opacity=".35"/><rect x="23" y="64" width="42" height="28" rx="7" fill="#1f5b72"/><rect x="23" y="64" width="42" height="12" rx="6" fill="#fff" opacity=".16"/><path d="M38 66v16" stroke="#d5e9f0" stroke-width="3.2" stroke-linecap="round"/><rect x="46" y="76" width="7" height="10" rx="2.5" fill="#9fd4e6"/><rect x="56" y="78" width="6" height="8" rx="2.2" fill="#f3b24a"/><rect x="69" y="64" width="9" height="28" rx="4.5" fill="url(#gBlue)"/><circle cx="62" cy="47" r="3" fill="#fff" opacity=".85"/><path d="M88 50h17v37.5a8.5 8.5 0 0 1 -17 0z" fill="url(#gGlass)" stroke="rgba(110,160,180,.75)" stroke-width="1.4"/><path d="M89.5 68.4h14v19.1a7.0 7.0 0 0 1 -14 0z" fill="url(#gRed)"/><ellipse cx="96.5" cy="68.4" rx="7.0" ry="2.2" fill="rgba(255,255,255,.35)"/><rect x="86" y="41" width="21" height="12" rx="3.5" fill="#d94b52"/><rect x="88" y="42" width="4.8" height="10" rx="2" fill="rgba(255,255,255,.35)"/><rect x="91.4" y="58" width="2.6" height="25.3" rx="1.3" fill="#fff" opacity=".75"/></svg>